<svg xmlns="http://www.w3.org/2000/svg" xmlns:xlink="http://www.w3.org/1999/xlink" version="1.1" width="1280pt" height="800pt" viewBox="0 0 1280 800">
<defs>
<clipPath id="clip_0">
<path transform="matrix(1,0,0,-1,0,800)" d="M0 800H1280V0H0Z"/>
</clipPath>
</defs>
<g id="layer_1" data-name="Layer 1">
<path transform="matrix(1,0,0,-1,416.7964,358.2646)" d="M0 0H39.487V-149.155H79.773V0H119.1V35.81H0Z" fill="#231f20"/>
<g clip-path="url(#clip_0)">
<path transform="matrix(1,0,0,-1,341.02,450.3477)" d="M0 0C0-14.867-8.792-24.3-22.541-24.3-36.609-24.3-45.082-15.027-45.082 0V127.893H-85.368V-.479C-85.368-37.089-59.95-59.949-22.541-59.949 14.868-59.949 40.286-37.089 40.286-.479V127.893H0Z" fill="#231f20"/>
<path transform="matrix(1,0,0,-1,640.2891,397.5918)" d="M0 0-23.021 8.792C-35.65 13.588-37.888 21.742-37.888 27.177-37.888 37.249-30.534 44.922-17.585 44.922-4.956 44.922 3.517 36.449 3.517 23.181V18.065H41.245V22.221C41.245 56.592 17.585 78.015-17.585 78.015-54.514 78.015-75.936 52.596-75.936 24.459-75.936-2.558-61.868-18.704-35.17-28.776L-9.272-38.688C2.238-43.164 6.715-49.398 6.715-58.671 6.715-71.62-1.758-79.294-16.946-79.294-32.133-79.294-41.405-72.26-41.405-57.392V-50.678H-79.453V-57.232C-79.453-91.604-52.916-113.025-16.946-113.025 22.541-113.025 45.082-89.045 45.082-54.994 45.082-20.623 23.021-8.793 0 0" fill="#231f20"/>
<path transform="matrix(1,0,0,-1,44.2456,398.6221)" d="M0 0 17.521 17.521 35.043 0 17.521-17.521Z" fill="#231f20"/>
<path transform="matrix(1,0,0,-1,118.4868,402.8672)" d="M0 0 13.269-13.27 30.694 4.156 12.79 22.061C5.595 29.255-6.075 29.255-13.269 22.061L-74.178-39.167-56.592-56.753Z" fill="#231f20"/>
<path transform="matrix(1,0,0,-1,114.3306,477.0449)" d="M0 0-17.425 17.425-30.694 4.156-43.963 17.425-61.389 0-43.483-17.905C-36.29-25.1-24.62-25.1-17.425-17.905Z" fill="#231f20"/>
<path transform="matrix(1,0,0,-1,118.4868,507.8994)" d="M0 0-13.269 13.269-30.694-4.156-12.789-22.062C-5.595-29.255 6.075-29.255 13.269-22.062L31.174-4.156 13.749 13.269Z" fill="#231f20"/>
<path transform="matrix(1,0,0,-1,153.4976,472.8887)" d="M0 0-13.269 13.269-30.854-4.156-12.949-22.062C-5.755-29.256 5.915-29.256 13.109-22.062L31.014-4.156 13.588 13.269Z" fill="#231f20"/>
<path transform="matrix(1,0,0,-1,157.6406,442.165)" d="M0 0 17.521 17.521 35.043 0 17.521-17.521Z" fill="#231f20"/>
<path transform="matrix(1,0,0,-1,118.4868,437.8779)" d="M0 0-13.269 13.269-30.694-4.156-12.789-22.062C-5.595-29.256 6.075-29.256 13.269-22.062L74.498 39.167 57.072 56.592Z" fill="#231f20"/>
<path transform="matrix(1,0,0,-1,95.1572,286.6455)" d="M0 0 23.293 23.283 46.576-.01 23.283-23.293Z" fill="#231f20"/>
<path transform="matrix(1,0,0,-1,89.3916,339.8804)" d="M0 0H16.786V-33.092C24.459-28.616 33.891-28.616 41.565-33.092V0H58.351L69.381-11.031 92.722 12.31 69.381 35.65 58.351 24.62H.16L-10.871 35.65-34.211 12.31-10.871-11.031Z" fill="#231f20"/>
<path transform="matrix(1,0,0,-1,768.501,480.4023)" d="M0 0C-3.996 .479-8.313 1.279-8.313 4.796-8.313 7.993-5.115 10.551-1.119 10.551 3.678 10.551 6.396 7.674 6.396 5.116 6.396 4.956 6.555 4.796 6.715 4.796H13.429C13.589 4.796 13.589 4.956 13.589 5.116 13.589 12.63 6.555 16.946-1.118 16.946-8.313 16.946-15.507 12.47-15.507 4.956-15.507-3.197-9.432-5.915 0-6.874 5.915-7.354 8.474-9.911 8.474-12.47 8.474-15.827 4.956-18.544 0-18.544-4.955-18.544-8.632-15.986-8.632-13.109-8.632-12.949-8.792-12.789-8.952-12.789H-15.666C-15.826-12.789-15.986-12.949-15.986-13.109-15.986-18.544-11.67-24.939-.159-24.939 9.593-24.939 15.508-20.143 15.508-12.47 15.667-1.918 6.075-.64 0 0" fill="#231f20"/>
<path transform="matrix(1,0,0,-1,822.2158,464.0957)" d="M0 0H-7.514C-7.673 0-7.833 0-7.993-.32L-17.105-16.786C-17.265-16.946-17.425-16.946-17.585-16.786L-26.537-.32C-26.697-.16-26.697 0-27.017 0H-34.53C-34.69 0-34.851-.16-34.69-.479L-20.782-23.82C-20.622-23.98-20.622-24.14-20.622-24.3V-40.606C-20.622-40.766-20.462-40.926-20.303-40.926H-13.908C-13.748-40.926-13.588-40.766-13.588-40.606V-24.3C-13.588-24.14-13.588-24.14-13.428-23.82L.48-.479C.32-.16 .16 0 0 0" fill="#231f20"/>
<path transform="matrix(1,0,0,-1,904.5469,464.0957)" d="M0 0H-6.395C-6.554 0-6.714-.16-6.714-.32V-30.854C-6.714-31.174-7.193-31.334-7.354-30.854L-23.181-.32C-23.181-.16-23.34 0-23.5 0H-32.133C-32.293 0-32.452-.16-32.452-.32V-40.446C-32.452-40.606-32.293-40.766-32.293-40.766H-25.898C-25.738-40.766-25.578-40.606-25.578-40.446V-9.912C-25.578-9.592-25.099-9.433-24.938-9.912L-9.112-40.446C-9.112-40.606-8.952-40.766-8.633-40.766H0C.16-40.766 .32-40.606 .32-40.446V-.32C.32-.16 .16 0 0 0" fill="#231f20"/>
<path transform="matrix(1,0,0,-1,943.5547,464.0957)" d="M0 0H-28.297C-28.456 0-28.616-.16-28.616-.32V-40.446C-28.616-40.606-28.456-40.766-28.297-40.766H0C.159-40.766 .319-40.606 .319-40.446V-34.691C.319-34.531 .16-34.371 0-34.371H-21.422C-21.582-34.371-21.742-34.212-21.742-34.052V-23.501C-21.742-23.341-21.582-23.181-21.422-23.181H-2.878C-2.718-23.181-2.559-23.021-2.559-22.861V-17.105C-2.559-16.946-2.718-16.786-2.878-16.786H-21.422C-21.582-16.786-21.742-16.626-21.742-16.467V-6.555C-21.742-6.395-21.582-6.235-21.422-6.235H0C.159-6.235 .319-6.075 .319-5.915V-.16C.319-.16 .159 0 0 0" fill="#231f20"/>
<path transform="matrix(1,0,0,-1,844.917,498.4668)" d="M0 0H-7.993C-8.153 0-8.313 .159-8.313 .319V27.816C-8.313 27.977-8.313 27.977-8.153 27.977H-.159C6.715 27.977 10.871 22.221 10.871 13.588 11.031 4.796 7.034 0 0 0M0 34.371H-14.867C-15.027 34.371-15.188 34.211-15.188 34.051V-6.075C-15.188-6.235-15.027-6.395-14.867-6.395H0C12.15-6.395 18.225 1.278 18.225 13.588 18.225 25.738 12.31 34.371 0 34.371" fill="#231f20"/>
<path transform="matrix(1,0,0,-1,985.5996,464.0957)" d="M0 0H-7.515C-7.674 0-7.834 0-7.994-.32L-17.106-16.786C-17.266-16.946-17.426-16.946-17.586-16.786L-26.538-.32C-26.698-.16-26.698 0-27.018 0H-34.531C-34.691 0-34.852-.16-34.691-.479L-20.783-23.82C-20.623-23.98-20.623-24.14-20.623-24.3V-40.606C-20.623-40.766-20.463-40.926-20.304-40.926H-13.909C-13.749-40.926-13.589-40.766-13.589-40.606V-24.3C-13.589-24.14-13.589-24.14-13.429-23.82L.479-.479C.319-.16 .159 0 0 0" fill="#231f20"/>
<path transform="matrix(1,0,0,-1,827.332,394.5542)" d="M0 0H-28.296C-28.456 0-28.616-.16-28.616-.32V-40.446C-28.616-40.606-28.456-40.766-28.296-40.766H-21.901C-21.742-40.766-21.582-40.606-21.582-40.446V-23.5C-21.582-23.34-21.582-23.34-21.422-23.34H-2.878C-2.718-23.34-2.558-23.181-2.558-23.021V-17.266C-2.558-17.106-2.718-16.946-2.878-16.946H-21.422C-21.582-16.946-21.582-16.946-21.582-16.786V-6.714C-21.582-6.555-21.582-6.555-21.422-6.555H0C.16-6.555 .319-6.395 .319-6.235V-.48C.319-.16 .16 0 0 0" fill="#231f20"/>
<path transform="matrix(1,0,0,-1,1058.8174,429.5654)" d="M0 0C-7.193 0-11.19 5.436-11.19 14.548-11.19 23.66-7.193 29.096 0 29.096 7.194 29.096 11.19 23.66 11.19 14.548 11.19 5.596 7.194 0 0 0M0 35.65C-12.149 35.65-18.385 27.018-18.385 14.708-18.385 2.398-12.31-6.234 0-6.234 12.15-6.234 18.385 2.398 18.385 14.708 18.385 26.857 12.31 35.65 0 35.65" fill="#231f20"/>
<path transform="matrix(1,0,0,-1,1236.748,394.5542)" d="M0 0H-7.514C-7.673 0-7.833 0-7.993-.32L-17.105-16.786C-17.266-16.946-17.425-16.946-17.585-16.786L-26.537-.32C-26.697-.16-26.697 0-27.017 0H-34.53C-34.69 0-34.851-.16-34.69-.48L-20.782-23.82C-20.622-23.98-20.622-24.14-20.622-24.299V-40.606C-20.622-40.766-20.463-40.926-20.303-40.926H-13.908C-13.748-40.926-13.588-40.766-13.588-40.606V-24.299C-13.588-24.14-13.588-24.14-13.429-23.82L.48-.48C.32-.16 .16 0 0 0" fill="#231f20"/>
<path transform="matrix(1,0,0,-1,1112.8526,428.9258)" d="M0 0H-19.664C-19.823 0-19.823 0-19.823 .16V34.052C-19.823 34.211-19.983 34.372-20.144 34.372H-26.538C-26.697 34.372-26.857 34.211-26.857 34.052V-6.074C-26.857-6.234-26.698-6.395-26.538-6.395H0C.16-6.395 .319-6.234 .319-6.074V-.319C.319-.159 .16 0 0 0" fill="#231f20"/>
<path transform="matrix(1,0,0,-1,1136.1924,429.5654)" d="M0 0C-7.193 0-11.19 5.436-11.19 14.548-11.19 23.66-7.193 29.096 0 29.096 7.194 29.096 11.191 23.66 11.191 14.548 11.191 5.596 7.194 0 0 0M0 35.65C-12.149 35.65-18.384 27.018-18.384 14.708-18.384 2.398-12.31-6.234 0-6.234 12.311-6.234 18.385 2.398 18.385 14.708 18.385 26.857 12.15 35.65 0 35.65" fill="#231f20"/>
<path transform="matrix(1,0,0,-1,771.5391,400.3096)" d="M0 0C7.193 0 11.19-5.436 11.19-14.548 11.19-23.66 7.193-29.096 0-29.096-7.194-29.096-11.19-23.66-11.19-14.548-11.19-5.596-7.194 0 0 0M0-35.65C12.149-35.65 18.385-27.018 18.385-14.708 18.385-2.398 12.31 6.235 0 6.235-12.15 6.235-18.385-2.398-18.385-14.708-18.385-26.857-12.31-35.65 0-35.65" fill="#231f20"/>
<path transform="matrix(1,0,0,-1,1197.581,411.8203)" d="M0 0H-17.105C-17.266 0-17.266-.159-17.266-.319V-6.074C-17.266-6.234-17.266-6.395-17.105-6.395H-6.234C-6.075-6.395-6.075-6.395-6.075-6.554V-7.193C-6.555-15.507-11.67-17.745-17.425-17.745-24.619-17.745-28.616-12.31-28.616-3.197-28.616 5.596-24.459 11.351-17.425 11.351-13.589 11.351-10.071 9.593-8.313 6.075-8.313 5.915-8.153 5.596-7.673 5.596H-.799C-.64 5.596-.479 5.756-.479 6.075-2.397 12.63-7.354 17.746-17.266 17.746-28.936 17.746-35.649 8.953-35.649-3.197-35.649-15.507-28.936-24.14-17.266-24.14-12.629-24.14-9.272-22.381-6.555-20.143-6.234-19.982-6.074-19.982-5.915-20.303L-5.275-23.34C-5.275-23.5-5.115-23.5-4.955-23.5H.32C.479-23.5 .64-23.5 .64-23.34V-.319C.32-.159 .16 0 0 0" fill="#231f20"/>
<path transform="matrix(1,0,0,-1,932.5234,400.4692)" d="M0 0C7.354 0 9.272-5.755 9.912-7.514 9.912-7.673 10.071-7.833 10.231-7.833H16.946C17.105-7.833 17.266-7.673 17.266-7.514 17.266-3.997 12.949 6.395 0 6.395-12.149 6.395-18.225-2.718-18.225-15.028-18.225-27.337-12.149-35.65 0-35.65 13.749-35.65 17.266-24.459 17.266-21.742 17.266-21.583 17.266-21.422 16.946-21.422H10.392C10.231-21.422 10.072-21.583 10.072-21.742 9.592-23.181 7.514-29.255 .16-29.255-6.714-29.255-10.871-23.98-10.871-15.187-10.871-6.075-6.874 0 0 0" fill="#231f20"/>
<path transform="matrix(1,0,0,-1,907.4248,394.5542)" d="M0 0H-28.296C-28.456 0-28.616-.16-28.616-.32V-40.446C-28.616-40.606-28.456-40.766-28.296-40.766H0C.16-40.766 .319-40.606 .319-40.446V-34.691C.319-34.531 .16-34.372 0-34.372H-21.422C-21.582-34.372-21.742-34.211-21.742-34.051V-23.5C-21.742-23.34-21.582-23.181-21.422-23.181H-2.878C-2.718-23.181-2.558-23.021-2.558-22.861V-17.106C-2.558-16.946-2.718-16.786-2.878-16.786H-21.422C-21.582-16.786-21.742-16.626-21.742-16.466V-6.555C-21.742-6.395-21.582-6.235-21.422-6.235H0C.16-6.235 .319-6.075 .319-5.915V-.16C.319-.16 .16 0 0 0" fill="#231f20"/>
<path transform="matrix(1,0,0,-1,871.4551,394.5542)" d="M0 0H-28.936C-29.096 0-29.256-.16-29.256-.32V-6.075C-29.256-6.235-29.096-6.395-28.936-6.395H-18.225C-18.064-6.395-17.905-6.554-17.905-6.714V-40.606C-17.905-40.766-17.745-40.926-17.585-40.926H-11.19C-11.03-40.926-10.871-40.766-10.871-40.606V-6.714C-10.871-6.555-10.711-6.395-10.551-6.395H.16C.319-6.395 .479-6.235 .479-6.075V-.32C.319-.16 .16 0 0 0" fill="#231f20"/>
<path transform="matrix(1,0,0,-1,988.4766,394.5542)" d="M0 0H-6.395C-6.555 0-6.714-.16-6.714-.32V-16.786C-6.714-16.946-6.714-16.946-6.874-16.946H-23.34C-23.5-16.946-23.5-16.946-23.5-16.786V-.32C-23.5-.16-23.66 0-23.819 0H-30.215C-30.374 0-30.534-.16-30.534-.32V-40.446C-30.534-40.606-30.374-40.766-30.215-40.766H-23.819C-23.66-40.766-23.5-40.606-23.5-40.446V-23.5C-23.5-23.34-23.5-23.34-23.34-23.34H-6.874C-6.714-23.34-6.714-23.34-6.714-23.5V-40.446C-6.714-40.606-6.555-40.766-6.395-40.766H0C.16-40.766 .32-40.606 .32-40.446V-.32C.32-.16 .16 0 0 0" fill="#231f20"/>
<path transform="matrix(1,0,0,-1,1031.4805,394.5542)" d="M0 0H-6.395C-6.555 0-6.714-.16-6.714-.32V-30.854C-6.714-31.174-7.193-31.333-7.354-30.854L-23.181-.32C-23.181-.16-23.34 0-23.5 0H-32.133C-32.293 0-32.453-.16-32.453-.32V-40.446C-32.453-40.606-32.293-40.766-32.293-40.766H-25.898C-25.738-40.766-25.578-40.606-25.578-40.446V-9.912C-25.578-9.592-25.099-9.432-24.938-9.912L-9.112-40.446C-9.112-40.606-8.952-40.766-8.633-40.766H0C.16-40.766 .32-40.606 .32-40.446V-.32C.32-.16 .16 0 0 0" fill="#231f20"/>
<path transform="matrix(1,0,0,-1,894.7949,365.7783)" d="M0 0H28.297C28.457 0 28.616 .16 28.616 .319V6.075C28.616 6.234 28.457 6.395 28.297 6.395H6.875C6.715 6.395 6.555 6.554 6.555 6.714V17.265C6.555 17.425 6.715 17.585 6.875 17.585H25.419C25.579 17.585 25.739 17.745 25.739 17.905V23.66C25.739 23.82 25.579 23.979 25.419 23.979H6.875C6.715 23.979 6.555 24.14 6.555 24.299V34.211C6.555 34.371 6.715 34.531 6.875 34.531H28.297C28.457 34.531 28.616 34.69 28.616 34.851V40.605C28.616 40.766 28.457 40.925 28.297 40.925H0C-.159 40.925-.319 40.766-.319 40.605V.16C-.319 0-.159 0 0 0" fill="#231f20"/>
<path transform="matrix(1,0,0,-1,863.6211,365.6187)" d="M0 0C0-.16 .16-.32 .32-.32H10.392C10.552-.32 10.712-.16 10.712 0L23.66 40.126C23.66 40.286 23.66 40.606 23.341 40.606H16.786C16.627 40.606 16.627 40.606 16.467 40.446L5.596 6.874C5.436 6.555 5.116 6.555 4.956 6.874L-5.915 40.446C-5.915 40.606-6.074 40.606-6.234 40.606H-12.949C-13.108 40.606-13.269 40.446-13.269 40.126Z" fill="#231f20"/>
<path transform="matrix(1,0,0,-1,1008.6201,365.7783)" d="M0 0H6.395C6.554 0 6.714 .16 6.714 .319V40.446C6.714 40.605 6.555 40.766 6.395 40.766H0C-.16 40.766-.32 40.605-.32 40.446V.16C-.32 0-.16 0 0 0" fill="#231f20"/>
<path transform="matrix(1,0,0,-1,836.2842,365.7783)" d="M0 0H6.395C6.555 0 6.715 .16 6.715 .319V40.446C6.715 40.605 6.555 40.766 6.395 40.766H0C-.159 40.766-.319 40.605-.319 40.446V.16C-.319 0-.159 0 0 0" fill="#231f20"/>
<path transform="matrix(1,0,0,-1,939.2383,331.7271)" d="M0 0C0 .16 0 .16 0 0L9.592 .16C12.629 .16 15.507-2.558 15.507-6.075 15.507-9.432 12.789-12.15 9.752-12.31H.319C.16-12.31 0-12.15 0-11.99ZM-6.555-34.051H-.16C0-34.051 .16-33.892 .16-33.732V-18.544C.16-18.385 .16-18.385 .319-18.385H9.432C9.592-18.385 9.592-18.544 9.752-18.705L16.466-33.892C16.466-33.892 16.626-34.051 16.786-34.051H23.5C23.66-34.051 23.979-33.892 23.82-33.572L16.466-16.946V-16.786C20.143-14.708 22.701-10.711 22.701-5.755 22.701 1.279 16.945 6.874 10.551 6.874H-6.395C-6.555 6.874-6.714 6.714-6.714 6.554V-33.892C-6.874-34.051-6.715-34.051-6.555-34.051" fill="#231f20"/>
<path transform="matrix(1,0,0,-1,1040.7529,331.4072)" d="M0 0H10.711C10.871 0 11.03 .16 11.03 .319V6.075C11.03 6.234 10.871 6.395 10.711 6.395H-18.225C-18.385 6.395-18.545 6.234-18.545 6.075V.319C-18.545 .16-18.385 0-18.225 0H-7.514C-7.354 0-7.194-.16-7.194-.32V-34.211C-7.194-34.371-7.034-34.531-6.874-34.531H-.479C-.319-34.531-.16-34.371-.16-34.211V-.32C-.32-.16-.16 0 0 0" fill="#231f20"/>
<path transform="matrix(1,0,0,-1,793.4404,365.7783)" d="M0 0H6.395C6.555 0 6.715 .16 6.715 .319V30.854C6.715 31.174 7.194 31.333 7.354 30.854L23.181 .319C23.181 .16 23.341 0 23.66 0H32.293C32.453 0 32.612 .16 32.612 .319V40.446C32.612 40.605 32.453 40.766 32.293 40.766H25.898C25.738 40.766 25.578 40.605 25.578 40.446V9.912C25.578 9.592 25.099 9.432 24.939 9.912L9.112 40.446C9.112 40.605 8.952 40.766 8.793 40.766H.16C0 40.766-.16 40.605-.16 40.446V.16C-.16 0 0 0 0 0" fill="#231f20"/>
<path transform="matrix(1,0,0,-1,984.7998,341.3188)" d="M0 0C-3.997 .479-8.313 1.279-8.313 4.796-8.313 7.993-5.115 10.551-1.119 10.551 3.677 10.551 6.395 7.673 6.395 5.116 6.395 4.956 6.555 4.796 6.715 4.796H13.429C13.589 4.796 13.589 4.956 13.589 5.116 13.589 12.629 6.555 16.945-1.119 16.945-8.313 16.945-15.507 12.469-15.507 4.956-15.507-3.198-9.432-5.915 0-6.875 5.915-7.354 8.473-9.912 8.473-12.47 8.473-15.827 4.956-18.544 0-18.544-4.956-18.544-8.633-15.987-8.633-13.109-8.633-12.949-8.793-12.79-8.952-12.79H-15.667C-15.827-12.79-15.986-12.949-15.986-13.109-15.986-18.544-11.67-24.939-.16-24.939 9.592-24.939 15.507-20.144 15.507-12.47 15.507-2.079 6.075-.799 0 0" fill="#231f20"/>
<path transform="matrix(1,0,0,-1,1092.5498,325.0127)" d="M0 0H-7.514C-7.674 0-7.834 0-7.994-.32L-17.106-16.786C-17.266-16.946-17.426-16.946-17.586-16.786L-26.538-.32C-26.698-.16-26.698 0-27.018 0H-34.531C-34.691 0-34.852-.16-34.691-.479L-20.783-23.82C-20.623-23.98-20.623-24.14-20.623-24.3V-40.606C-20.623-40.766-20.463-40.926-20.304-40.926H-13.908C-13.749-40.926-13.589-40.766-13.589-40.606V-24.3C-13.589-24.14-13.589-24.14-13.429-23.82L.479-.479C.479-.16 .159 0 0 0" fill="#231f20"/>
<path transform="matrix(1,0,0,-1,768.501,366.418)" d="M0 0C8.153 0 14.708 6.555 14.708 14.708V41.085C14.708 41.245 14.548 41.405 14.389 41.405H7.994C7.834 41.405 7.674 41.245 7.674 41.085V14.708C7.674 10.391 4.157 6.874-.159 6.874-4.476 6.874-7.993 10.391-7.993 14.708V41.085C-7.993 41.245-8.152 41.405-8.313 41.405H-14.707C-14.867 41.405-15.027 41.245-15.027 41.085V14.708C-14.867 6.555-8.152 0 0 0" fill="#231f20"/>
</g>
</g>
</svg>
