<?xml version="1.0" encoding="utf-8"?>
<!-- Generator: Adobe Illustrator 28.0.0, SVG Export Plug-In . SVG Version: 6.00 Build 0)  -->
<svg version="1.1" id="Layer_1" xmlns="http://www.w3.org/2000/svg" xmlns:xlink="http://www.w3.org/1999/xlink" x="0px" y="0px"
	 viewBox="0 0 756 800" style="enable-background:new 0 0 756 800;" xml:space="preserve">
<style type="text/css">
	.st0{fill:#231F20;}
	.st1{clip-path:url(#SVGID_00000134221294773709977760000015187658098005662854_);}
</style>
<g id="layer_1">
	<path class="st0" d="M416.8,358.3h39.5v149.2h40.3V358.3h39.3v-35.8H416.8V358.3z"/>
	<g>
		<defs>
			<rect id="SVGID_1_" y="0" width="1280" height="800"/>
		</defs>
		<clipPath id="SVGID_00000107550450433735751120000015998877867980613533_">
			<use xlink:href="#SVGID_1_"  style="overflow:visible;"/>
		</clipPath>
		<g style="clip-path:url(#SVGID_00000107550450433735751120000015998877867980613533_);">
			<path class="st0" d="M341,450.3c0,14.9-8.8,24.3-22.5,24.3c-14.1,0-22.5-9.3-22.5-24.3V322.5h-40.3v128.4
				c0,36.6,25.4,59.5,62.8,59.5s62.8-22.9,62.8-59.5V322.5H341V450.3z"/>
			<path class="st0" d="M640.3,397.6l-23-8.8c-12.6-4.8-14.9-13-14.9-18.4c0-10.1,7.4-17.7,20.3-17.7c12.6,0,21.1,8.5,21.1,21.7v5.1
				h37.7v-4.2c0-34.4-23.7-55.8-58.8-55.8c-36.9,0-58.4,25.4-58.4,53.6c0,27,14.1,43.2,40.8,53.2l25.9,9.9c11.5,4.5,16,10.7,16,20
				c0,12.9-8.5,20.6-23.7,20.6c-15.2,0-24.5-7-24.5-21.9v-6.7h-38v6.6c0,34.4,26.5,55.8,62.5,55.8c39.5,0,62-24,62-58
				C685.4,418.2,663.3,406.4,640.3,397.6"/>
			<path class="st0" d="M44.2,398.6l17.5-17.5l17.5,17.5l-17.5,17.5L44.2,398.6z"/>
			<path class="st0" d="M118.5,402.9l13.3,13.3l17.4-17.4l-17.9-17.9c-7.2-7.2-18.9-7.2-26.1,0L44.3,442l17.6,17.6L118.5,402.9z"/>
			<path class="st0" d="M114.3,477l-17.4-17.4l-13.3,13.3l-13.3-13.3L52.9,477l17.9,17.9c7.2,7.2,18.9,7.2,26.1,0L114.3,477z"/>
			<path class="st0" d="M118.5,507.9l-13.3-13.3l-17.4,17.4l17.9,17.9c7.2,7.2,18.9,7.2,26.1,0l17.9-17.9l-17.4-17.4L118.5,507.9z"
				/>
			<path class="st0" d="M153.5,472.9l-13.3-13.3L122.6,477l17.9,17.9c7.2,7.2,18.9,7.2,26.1,0l17.9-17.9l-17.4-17.4L153.5,472.9z"/>
			<path class="st0" d="M157.6,442.2l17.5-17.5l17.5,17.5l-17.5,17.5L157.6,442.2z"/>
			<path class="st0" d="M118.5,437.9l-13.3-13.3L87.8,442l17.9,17.9c7.2,7.2,18.9,7.2,26.1,0l61.2-61.2l-17.4-17.4L118.5,437.9z"/>
			<path class="st0" d="M95.2,286.6l23.3-23.3l23.3,23.3l-23.3,23.3L95.2,286.6z"/>
			<path class="st0" d="M89.4,339.9h16.8V373c7.7-4.5,17.1-4.5,24.8,0v-33.1h16.8l11,11l23.3-23.3l-23.3-23.3l-11,11H89.6l-11-11
				l-23.3,23.3l23.3,23.3L89.4,339.9z"/>
		</g>
	</g>
</g>
</svg>
