<?xml version="1.0" encoding="utf-8"?>
<!-- Generator: Adobe Illustrator 28.1.0, SVG Export Plug-In . SVG Version: 6.00 Build 0)  -->
<svg version="1.1" id="Layer_1" xmlns="http://www.w3.org/2000/svg" xmlns:xlink="http://www.w3.org/1999/xlink" x="0px" y="0px"
	 viewBox="0 0 24 24" style="enable-background:new 0 0 24 24;" xml:space="preserve">
<style type="text/css">
	.st0{fill:#30B7CE;}
</style>
<g>
	<path class="st0" d="M1.8,7.4c2.9-1.3,5.9-2.5,8.8-3.8c0.1,0,0.2,0,0.3,0.1C11,3.9,10.9,4,10.9,4c0.1,1.7,0.3,3.4,0.4,5.1
		c-2.5,1.1-5,2.3-7.5,3.4c-0.3-0.5-0.5-1-0.7-1.7c-0.2-0.4-0.3-0.9-0.3-1.2c0,0-0.1,0-0.2,0c-0.1,0-0.2,0-0.2-0.1
		C2.3,9.4,2.2,9.4,2.2,9.3C1.8,8.9,1.6,8.4,1.5,8c0-0.1,0-0.2,0.1-0.3C1.6,7.6,1.7,7.5,1.8,7.4z"/>
	<path class="st0" d="M11.5,10.2c-2.4,1.1-4.8,2.1-7.3,3.2L11.5,10.2z"/>
	<path class="st0" d="M12.3,12.6"/>
	<path class="st0" d="M12.3,12.6"/>
	<path class="st0" d="M4.3,13.4l7.3-3.2c0.1,0.4,0.2,0.8,0.3,1.2c0.1,0.4,0.3,0.8,0.4,1.2c-2.1,1.1-4.2,2.2-6.4,3.3
		c-0.3-0.3-0.6-0.7-0.9-1.2C4.7,14.2,4.4,13.8,4.3,13.4z"/>
	<path class="st0" d="M12.7,13.7l-5.9,3c-0.1,0-0.1,0.1,0,0.1c0.7,0.8,2.3,2.4,4.8,3.2c0,0,2.7,0.8,5.9,0.1c0.7-0.2,1.4-0.4,1.4-0.4
		c0.5-0.1,0.9-0.3,1.3-0.5c0,0,0,0,0,0c0,0,0,0,0,0l0.2,0.2c0,0,0.1,0,0.1,0c0.1,0,0.3,0,0.5-0.1c0.2-0.1,0.3-0.1,0.4-0.2
		c0,0,0,0,0-0.1c0,0,0-0.1,0-0.1c0,0,0-0.1,0-0.1c0,0,0,0,0,0c0,0,0,0,0,0c0.3-0.1,0.5-0.2,0.8-0.3c0.1,0,0.2-0.2,0.2-0.3
		c0-0.1-0.1-0.2-0.1-0.2c0,0,0,0,0-0.1L22,17.2c0,0,0,0,0,0c0,0,0,0,0-0.1c0,0-0.1-0.1-0.1-0.1c-0.1,0-0.5,0.1-0.5,0.2
		c-0.1,0-0.2,0.1-0.3,0.1c-0.1,0-0.1-0.1-0.1-0.1c-0.1-0.1-0.2,0-0.5,0.1c-0.3,0.1-0.4,0.1-0.4,0.2c0,0.1,0.1,0.3,0,0.3
		c0,0-1.7,0.1-2.5-0.1C14.5,17,13,14.3,12.7,13.7z"/>
</g>
</svg>
